Genre:Adventure | Drama | Fantasy
Language:English
IMDb:  http://www.imdb.com/title/tt1324999/
Source:1080p.BluRay.x264.DTS.ES.HDChina Thanks!
Subtitles:English
Encoder:Tony 
http://img841.imageshack.us/img841/1131/vlcsnap2012012719h05m57.png 
http://img26.imageshack.us/img26/7348/vlcsnap2012012719h03m22.png 
http://img26.imageshack.us/img26/7348/vlcsnap2012012719h03m22.png
MPEG-4
Format profile : Base Media
Codec ID : isom
File size : 2.73 GiB
Duration : 1h 57mn
Overall bit rate mode : Variable
Overall bit rate : 3 335 Kbps

Video
ID : 1
Format : AVC
Format/Info : Advanced Video Codec
Format profile : High@L3.1
Format settings, CABAC : Yes
Format settings, ReFrames : 3 frames
Codec ID : avc1
Codec ID/Info : Advanced Video Coding
Duration : 1h 57mn
Bit rate : 3 000 Kbps
Maximum bit rate : 17.6 Mbps
Width : 1 280 pixels
Height : 536 pixels
Display aspect ratio : 2.40:1
Frame rate mode : Constant
Frame rate : 23.976 fps
Color space : YUV
Chroma subsampling : 4:2:0
Bit depth : 8 bits
Scan type : Progressive
Bits/(Pixel*Frame) : 0.182
Stream size : 2.36 GiB (87%)
Writing library : x264


Audio
ID : 2
Format : AAC
Format/Info : Advanced Audio Codec
Format profile : LC
Codec ID : 40
Duration : 1h 57mn
Bit rate mode : Variable
Bit rate : 443 Kbps
Maximum bit rate : 570 Kbps
Channel(s) : 6 channels
Channel positions : Front: L C R, Side: L R, LFE
Sampling rate : 48.0 KHz
Compression mode : Lossy
Stream size : 372 MiB (13%)


Plot:
The Quileute and the Volturi close in on expecting parents Edward and Bella, whose unborn child poses different threats to the wolf pack and vampire coven